<mxfile host="app.diagrams.net" modified="2024-05-31T09:08:28.306Z" agent="Mozilla/5.0 (Windows NT 10.0; Win64; x64) AppleWebKit/537.36 (KHTML, like Gecko) Chrome/123.0.0.0 Safari/537.36" etag="qLckOUAYXTpAxOHMdWDX" version="24.4.3" type="github">
  <diagram name="Trang-1" id="MFd6q8ZzGsIqHq-jMO9I">
    <mxGraphModel dx="2244" dy="734" grid="1" gridSize="10" guides="1" tooltips="1" connect="1" arrows="1" fold="1" page="1" pageScale="1" pageWidth="827" pageHeight="1169" math="0" shadow="0">
      <root>
        <mxCell id="0" />
        <mxCell id="1" parent="0" />
        <mxCell id="XOwhN0WLHvijaQmVpkC--8" style="edgeStyle=orthogonalEdgeStyle;rounded=0;orthogonalLoop=1;jettySize=auto;html=1;exitX=0.5;exitY=1;exitDx=0;exitDy=0;entryX=0.5;entryY=0;entryDx=0;entryDy=0;" edge="1" parent="1" source="XOwhN0WLHvijaQmVpkC--2" target="XOwhN0WLHvijaQmVpkC--3">
          <mxGeometry relative="1" as="geometry" />
        </mxCell>
        <mxCell id="XOwhN0WLHvijaQmVpkC--2" value="&lt;font face=&quot;Helvetica&quot; style=&quot;font-size: 18px;&quot;&gt;Start&lt;/font&gt;" style="ellipse;whiteSpace=wrap;html=1;" vertex="1" parent="1">
          <mxGeometry x="-480" y="20" width="120" height="80" as="geometry" />
        </mxCell>
        <mxCell id="XOwhN0WLHvijaQmVpkC--6" value="" style="edgeStyle=orthogonalEdgeStyle;rounded=0;orthogonalLoop=1;jettySize=auto;html=1;exitX=0.5;exitY=1;exitDx=0;exitDy=0;" edge="1" parent="1" source="XOwhN0WLHvijaQmVpkC--2" target="XOwhN0WLHvijaQmVpkC--2">
          <mxGeometry relative="1" as="geometry">
            <Array as="points" />
          </mxGeometry>
        </mxCell>
        <mxCell id="XOwhN0WLHvijaQmVpkC--13" style="edgeStyle=orthogonalEdgeStyle;rounded=0;orthogonalLoop=1;jettySize=auto;html=1;exitX=0.5;exitY=1;exitDx=0;exitDy=0;entryX=0.5;entryY=0;entryDx=0;entryDy=0;" edge="1" parent="1" source="XOwhN0WLHvijaQmVpkC--3" target="XOwhN0WLHvijaQmVpkC--10">
          <mxGeometry relative="1" as="geometry" />
        </mxCell>
        <mxCell id="XOwhN0WLHvijaQmVpkC--3" value="&lt;font style=&quot;font-size: 18px;&quot;&gt;Get n and arr[n]&lt;/font&gt;" style="shape=parallelogram;perimeter=parallelogramPerimeter;whiteSpace=wrap;html=1;fixedSize=1;" vertex="1" parent="1">
          <mxGeometry x="-507.5" y="150" width="175" height="70" as="geometry" />
        </mxCell>
        <mxCell id="XOwhN0WLHvijaQmVpkC--10" value="&lt;font style=&quot;font-size: 18px;&quot;&gt;i = 0&lt;/font&gt;" style="rounded=0;whiteSpace=wrap;html=1;" vertex="1" parent="1">
          <mxGeometry x="-480" y="280" width="120" height="60" as="geometry" />
        </mxCell>
        <mxCell id="XOwhN0WLHvijaQmVpkC--18" style="edgeStyle=orthogonalEdgeStyle;rounded=0;orthogonalLoop=1;jettySize=auto;html=1;exitX=0.5;exitY=1;exitDx=0;exitDy=0;entryX=0.5;entryY=0;entryDx=0;entryDy=0;" edge="1" parent="1" source="XOwhN0WLHvijaQmVpkC--15" target="XOwhN0WLHvijaQmVpkC--17">
          <mxGeometry relative="1" as="geometry" />
        </mxCell>
        <mxCell id="XOwhN0WLHvijaQmVpkC--15" value="&lt;font style=&quot;font-size: 18px;&quot;&gt;i &amp;lt; n&lt;/font&gt;" style="rhombus;whiteSpace=wrap;html=1;" vertex="1" parent="1">
          <mxGeometry x="-480" y="390" width="120" height="80" as="geometry" />
        </mxCell>
        <mxCell id="XOwhN0WLHvijaQmVpkC--16" style="edgeStyle=orthogonalEdgeStyle;rounded=0;orthogonalLoop=1;jettySize=auto;html=1;exitX=0.5;exitY=1;exitDx=0;exitDy=0;entryX=0.5;entryY=-0.087;entryDx=0;entryDy=0;entryPerimeter=0;" edge="1" parent="1" source="XOwhN0WLHvijaQmVpkC--10" target="XOwhN0WLHvijaQmVpkC--15">
          <mxGeometry relative="1" as="geometry" />
        </mxCell>
        <mxCell id="XOwhN0WLHvijaQmVpkC--20" style="edgeStyle=orthogonalEdgeStyle;rounded=0;orthogonalLoop=1;jettySize=auto;html=1;exitX=0.5;exitY=1;exitDx=0;exitDy=0;" edge="1" parent="1" source="XOwhN0WLHvijaQmVpkC--17">
          <mxGeometry relative="1" as="geometry">
            <mxPoint x="-420" y="650" as="targetPoint" />
          </mxGeometry>
        </mxCell>
        <mxCell id="XOwhN0WLHvijaQmVpkC--17" value="&lt;font style=&quot;font-size: 18px;&quot;&gt;j = n - 1&lt;/font&gt;" style="rounded=0;whiteSpace=wrap;html=1;" vertex="1" parent="1">
          <mxGeometry x="-480" y="525" width="120" height="60" as="geometry" />
        </mxCell>
        <mxCell id="XOwhN0WLHvijaQmVpkC--19" value="&lt;font style=&quot;font-size: 18px;&quot;&gt;True&lt;/font&gt;" style="text;html=1;align=center;verticalAlign=middle;resizable=0;points=[];autosize=1;strokeColor=none;fillColor=none;" vertex="1" parent="1">
          <mxGeometry x="-425" y="475" width="60" height="40" as="geometry" />
        </mxCell>
        <mxCell id="XOwhN0WLHvijaQmVpkC--21" value="&lt;font style=&quot;font-size: 18px;&quot;&gt;True&lt;/font&gt;" style="text;html=1;align=center;verticalAlign=middle;resizable=0;points=[];autosize=1;strokeColor=none;fillColor=none;" vertex="1" parent="1">
          <mxGeometry x="-425" y="600" width="60" height="40" as="geometry" />
        </mxCell>
        <mxCell id="XOwhN0WLHvijaQmVpkC--22" value="arr" style="rhombus;whiteSpace=wrap;html=1;" vertex="1" parent="1">
          <mxGeometry x="-507.5" y="650" width="180" height="80" as="geometry" />
        </mxCell>
      </root>
    </mxGraphModel>
  </diagram>
</mxfile>
